<svg xmlns="http://www.w3.org/2000/svg" width="61" height="64.084" viewBox="0 0 61 64.084"><g transform="translate(-895.5 -259.017)"><path d="M4133.387,1166.857c2.381-21.2,16.505-31.215,30.477-30.979,13.809.511,22.135,9.128,26.261,18.078a38,38,0,0,1,3.262,12.9" transform="translate(-3237.387 -876.357)" fill="#497785" stroke="#497785" stroke-width="1"/><path d="M4133.387,1140.676c.476-3.285,3.3-4.837,6.1-4.8a6.013,6.013,0,0,1,5.252,2.8,4.813,4.813,0,0,1,.652,2" transform="translate(5041.387 1458.476) rotate(180)" fill="#497785" stroke="#497785" stroke-width="1"/><line y2="27.5" transform="translate(896 290.4)" fill="none" stroke="#497785" stroke-width="1"/><path d="M4133.387,1140.676c.476-3.285,3.3-4.837,6.1-4.8a6.013,6.013,0,0,1,5.252,2.8,4.813,4.813,0,0,1,.652,2" transform="translate(5053.387 1458.476) rotate(180)" fill="#497785" stroke="#497785" stroke-width="1"/><path d="M4133.387,1140.676c.476-3.285,3.3-4.837,6.1-4.8a6.013,6.013,0,0,1,5.252,2.8,4.813,4.813,0,0,1,.652,2" transform="translate(5065.387 1458.476) rotate(180)" fill="#497785" stroke="#497785" stroke-width="1"/><path d="M4133.387,1140.676c.476-3.285,3.3-4.837,6.1-4.8a6.013,6.013,0,0,1,5.252,2.8,4.813,4.813,0,0,1,.652,2" transform="translate(5077.387 1458.476) rotate(180)" fill="#497785" stroke="#497785" stroke-width="1"/><path d="M4133.387,1140.676c.476-3.285,3.3-4.837,6.1-4.8a6.013,6.013,0,0,1,5.252,2.8,4.813,4.813,0,0,1,.652,2" transform="translate(5089.387 1458.476) rotate(180)" fill="#497785" stroke="#497785" stroke-width="1"/><line y2="27.5" transform="translate(956 290.4)" fill="none" stroke="#497785" stroke-width="1"/><g transform="translate(907.5 317.3)" fill="#497785" stroke="#497785" stroke-width="1"><circle cx="0.5" cy="0.5" r="0.5" stroke="none"/><circle cx="0.5" cy="0.5" fill="none"/></g><g transform="translate(919.5 317.3)" fill="#497785" stroke="#497785" stroke-width="1"><circle cx="0.5" cy="0.5" r="0.5" stroke="none"/><circle cx="0.5" cy="0.5" fill="none"/></g><g transform="translate(931.5 317.3)" fill="#497785" stroke="#497785" stroke-width="1"><circle cx="0.5" cy="0.5" r="0.5" stroke="none"/><circle cx="0.5" cy="0.5" fill="none"/></g><g transform="translate(943.5 317.3)" fill="#497785" stroke="#497785" stroke-width="1"><circle cx="0.5" cy="0.5" r="0.5" stroke="none"/><circle cx="0.5" cy="0.5" fill="none"/></g><rect width="60" height="28" transform="translate(896 290)" fill="#497785"/><path d="M4133.387,1140.676a5.026,5.026,0,0,1,5.08-4.8,4.9,4.9,0,0,1,4.377,2.8,5.544,5.544,0,0,1,.543,2" transform="translate(-3224.387 -847.775)" fill="#9dc9d6"/><path d="M4133.387,1140.676a5.026,5.026,0,0,1,5.08-4.8,4.9,4.9,0,0,1,4.377,2.8,5.544,5.544,0,0,1,.543,2" transform="translate(-3200.387 -847.775)" fill="#9dc9d6"/></g></svg>